<svg xmlns:svg="http://www.w3.org/2000/svg" version="1.1" width="1500px" height="1499.999964px" preserveAspectRatio="none" viewBox="0 0 1500 1499.999964"><defs><clipPath id="clippath0" transform="matrix(0.23999999 0 0 -0.23999999 0 383.03998)"><path d="M 0 0 L 1562.5 0 L 1562.5 1562.5 L 0 1562.5 Z" fill="none" clip-rule="evenodd"></path></clipPath><clipPath id="clippath1" transform="matrix(0.23999999 0 0 -0.23999999 0 383.03998)"><path d="M 0 0 L 1562.5 0 L 1562.5 1562.5 L 0 1562.5 Z" fill="none" clip-rule="evenodd"></path></clipPath><clipPath id="clippath2" transform="matrix(0.23999999 0 0 -0.23999999 0 383.03998)"><path d="M 0 467.63297 L 1562.5 467.63297 L 1562.5 877.00794 L 0 877.00794 Z" fill="none" clip-rule="evenodd"></path></clipPath><clipPath id="clippath3" transform="matrix(0.23999999 0 0 -0.23999999 0 383.03998)"><path d="M 0 0 L 1562.5 0 L 1562.5 1562.5 L 0 1562.5 Z" fill="none" clip-rule="evenodd"></path></clipPath></defs><g transform="matrix(4 0 0 -4 0 1532.15992)"><g transform="matrix(0.23999999 0 0 -0.23999999 0 383.03998)"><path d="M 0 0 L 1562.5 0 L 1562.5 1562.5 L 0 1562.5 Z" fill="none"></path></g><g clip-path="url(#clippath0)"><g transform="matrix(0.7499999687 0 0 -0.7499999687 0 383.03998)"><path d="M 0 0 L 500 0 L 500 500 L 0 500 Z" fill="#ffffff" fill-opacity="1"></path></g></g><g transform="matrix(0.23999999 0 0 -0.23999999 0 383.03998)"><path d="M 0 0 L 1562.5 0 L 1562.5 1562.5 L 0 1562.5 Z" fill="none"></path></g><g clip-path="url(#clippath1)"><g transform="matrix(0.7499999687 0 0 -0.7499999687 0 383.03998)"><path d="M 0 0 L 500 0 L 500 500 L 0 500 Z" fill="#ffffff" fill-opacity="1"></path></g></g><g transform="matrix(0.23999999 0 0 -0.23999999 0 383.03998)"><path d="M 0 467.63297 L 1562.5 467.63297 L 1562.5 877.00794 L 0 877.00794 Z" fill="none"></path></g><g clip-path="url(#clippath2)"><g transform="matrix(0.0941102265 0 0 -0.0941102265 0.0982933135 270.8080718763)"><path d="M 1229.09998 920.09998 L 1989.9 148.199997 L 2751.2 920.09998 L 2691.8999 920.09998 L 2671.8999 920.09998 L 2595.3999 920.09998 L 2595.3999 842.59998 L 1989.9 228.7 L 1389.30005 838.09998 L 1389.30005 920.09998 L 1308.40002 920.09998 L 1292.80005 920.09998 L 1229.09998 920.09998 Z" fill="#c21d2e" fill-rule="evenodd" fill-opacity="1"></path><path d="M 525.29999 387.10001 L 1000.40002 869.20001 L 1134.70007 869.20001 L 1991.3 0 L 2847.8999 869.20001 L 2982.2 869.20001 L 3457.3 387.10001 L 3982.6001 920.09998 L 3891.4001 920.09998 L 3457.4001 479.69998 L 3023.4001 920.09998 C 2951.2002 920.09998 2879.1001 920.09998 2806.9001 920.09998 L 1991.3 92.599998 L 1175.80005 920.19995 C 1103.6001 920.19995 1031.5 920.19995 959.30005 920.19995 L 525.30005 479.79996 L 91.300049 920.19995 L 0 920.19995 L 525.29999 387.10001 Z" fill="#214083" fill-rule="evenodd" fill-opacity="1"></path><path d="M 985.29999 398.5 L 1279.09998 101.800003 L 1566.19995 391.60001 L 1536.30005 421.89999 L 1279.09998 162.5 L 1041.59998 402.20001 L 985.29999 398.5 Z" fill="#214083" fill-rule="evenodd" fill-opacity="1"></path><path d="M 524.59998 503.29999 L 930.40002 920.09998 L 871.29999 920.09998 L 524.59998 562 L 171.3 920.09998 L 113.5 920.09998 L 524.59998 503.29999 Z" fill="#c21d2e" fill-rule="evenodd" fill-opacity="1"></path><path d="M 567.20001 389.79999 L 1508 450.5 L 1123 841.20001 L 1012.09998 841.20001 L 567.20001 389.79999 Z" fill="#214083" fill-rule="evenodd" fill-opacity="1"></path><path d="M 1302.30005 105.300003 L 1777.6 177.10001 L 1576 381.60001 L 1302.30005 105.300003 Z" fill="#214083" fill-rule="evenodd" fill-opacity="1"></path><path d="M 526.20001 872.09998 L 467.5 872.09998 L 467.5 813.39996 L 526.20001 813.39996 L 526.20001 872.09998 Z M 605.70001 813.40002 L 605.70001 872.10004 L 547 872.10004 L 547 813.40002 L 605.70001 813.40002 Z M 546.90002 733.90002 L 605.60004 733.90002 L 605.60004 792.60004 L 546.90002 792.60004 L 546.90002 733.90002 Z M 467.5 733.90002 L 526.20001 733.90002 L 526.20001 792.60004 L 467.5 792.60004 L 467.5 733.90002 Z" fill="#04345c" fill-rule="evenodd" fill-opacity="1"></path><path d="M 1288.09998 385.20001 L 1254.29993 385.20001 L 1254.29993 351.40002 L 1288.09998 351.40002 L 1288.09998 385.20001 Z M 1333.80005 351.5 L 1333.80005 385.29999 L 1300 385.29999 L 1300 351.5 L 1333.80005 351.5 Z M 1300 305.79999 L 1333.80005 305.79999 L 1333.80005 339.59998 L 1300 339.59998 L 1300 305.79999 Z M 1254.30005 305.79999 L 1288.1001 305.79999 L 1288.1001 339.59998 L 1254.30005 339.59998 L 1254.30005 305.79999 Z" fill="#c21d2e" fill-rule="evenodd" fill-opacity="1"></path><path d="M 150.100006 920.09998 L 208.39999 920.09998 L 208.39999 867.59998 L 150.100006 920.09998 Z" fill="#c21d2e" fill-rule="evenodd" fill-opacity="1"></path><path d="M 892.40002 920.09998 L 834.09998 920.09998 L 834.09998 867.59998 L 892.40002 920.09998 Z" fill="#c21d2e" fill-rule="evenodd" fill-opacity="1"></path><path d="M 2997.2 398.5 L 2703.5 101.800003 L 2416.3999 391.60001 L 2446.3 421.89999 L 2703.5 162.5 L 2940.8999 402.20001 L 2997.2 398.5 Z" fill="#214083" fill-rule="evenodd" fill-opacity="1"></path><path d="M 3458 503.29999 L 3052.2 920.09998 L 3111.2 920.09998 L 3458 562 L 3811.3 920.09998 L 3869.1001 920.09998 L 3458 503.29999 Z" fill="#c21d2e" fill-rule="evenodd" fill-opacity="1"></path><path d="M 3415.3 389.79999 L 2474.6001 450.5 L 2859.6001 841.20001 L 2970.5 841.20001 L 3415.3 389.79999 Z" fill="#214083" fill-rule="evenodd" fill-opacity="1"></path><path d="M 2680.3 105.300003 L 2205 177.10001 L 2406.6001 381.60001 L 2680.3 105.300003 Z" fill="#214083" fill-rule="evenodd" fill-opacity="1"></path><path d="M 3456.3999 872.09998 L 3515.0999 872.09998 L 3515.0999 813.39996 L 3456.3999 813.39996 L 3456.3999 872.09998 Z M 3376.8999 813.40002 L 3376.8999 872.10004 L 3435.5999 872.10004 L 3435.5999 813.40002 L 3376.8999 813.40002 Z M 3435.6001 733.90002 L 3376.9001 733.90002 L 3376.9001 792.60004 L 3435.6001 792.60004 L 3435.6001 733.90002 Z M 3515.1001 733.90002 L 3456.4001 733.90002 L 3456.4001 792.60004 L 3515.1001 792.60004 L 3515.1001 733.90002 Z" fill="#c21d2e" fill-rule="evenodd" fill-opacity="1"></path><path d="M 2694.5 385.20001 L 2728.3 385.20001 L 2728.3 351.40002 L 2694.5 351.40002 L 2694.5 385.20001 Z M 2648.8 351.5 L 2648.8 385.29999 L 2682.6001 385.29999 L 2682.6001 351.5 L 2648.8 351.5 Z M 2682.6001 305.79999 L 2648.8 305.79999 L 2648.8 339.59998 L 2682.6001 339.59998 L 2682.6001 305.79999 Z M 2728.3 305.79999 L 2694.5 305.79999 L 2694.5 339.59998 L 2728.3 339.59998 L 2728.3 305.79999 Z" fill="#c21d2e" fill-rule="evenodd" fill-opacity="1"></path><path d="M 3832.5 920.09998 L 3774.2 920.09998 L 3774.2 867.59998 L 3832.5 920.09998 Z" fill="#c21d2e" fill-rule="evenodd" fill-opacity="1"></path><path d="M 3090.1001 920.09998 L 3148.5 920.09998 L 3148.5 867.59998 L 3090.1001 920.09998 Z" fill="#c21d2e" fill-rule="evenodd" fill-opacity="1"></path><path d="M 1973.3 810.59998 L 1877.7001 810.59998 L 1877.7001 715 L 1973.3 715 L 1973.3 810.59998 Z M 2102.7 715 L 2102.7 810.70001 L 2007 810.70001 L 2007 715 L 2102.7 715 Z M 2007 585.59998 L 2102.6001 585.59998 L 2102.6001 681.19995 L 2007 681.19995 L 2007 585.59998 Z M 1877.6 585.59998 L 1973.2 585.59998 L 1973.2 681.19995 L 1877.6 681.19995 L 1877.6 585.59998 Z" fill="#c21d2e" fill-rule="evenodd" fill-opacity="1"></path><path d="M 2441.3999 998.40002 L 3982.6001 998.40002 L 3982.6001 1040.999996 L 2441.3999 1040.999996 Z" fill="#214083" fill-rule="evenodd" fill-opacity="1"></path><path d="M 0 998.40002 L 1541.19995 998.40002 L 1541.19995 1040.999996 L 0 1040.999996 Z" fill="#214083" fill-rule="evenodd" fill-opacity="1"></path></g></g><g transform="matrix(0.23999999 0 0 -0.23999999 0 383.03998)"><path d="M 0 0 L 1562.5 0 L 1562.5 1562.5 L 0 1562.5 Z" fill="none"></path></g><g clip-path="url(#clippath3)"><g transform="matrix(0.7499999687 0 0 -0.7499999687 0 176.8432061915)"><text transform="matrix(1 0 0 -1 10.625 48) scale(1, -1)" xml:space="preserve"><tspan font-family="g_d0_f1" font-size="53.380001px" y="0" x="0" fill="#214083"></tspan><tspan font-family="g_d0_f1" font-size="53.380001px" y="0" x="52.360886" fill="#214083"></tspan><tspan font-family="g_d0_f1" font-size="53.380001px" y="0" x="74.084519" fill="#214083"></tspan><tspan font-family="g_d0_f1" font-size="53.380001px" y="0" x="94.847397" fill="#214083"></tspan><tspan font-family="g_d0_f1" font-size="53.380001px" y="0" x="109.6856538" fill="#214083"></tspan><tspan font-family="g_d0_f1" font-size="53.380001px" y="0" x="135.3590238" fill="#214083"></tspan><tspan font-family="g_d0_f1" font-size="53.380001px" y="0" x="163.0606538" fill="#214083"></tspan><tspan font-family="g_d0_f1" font-size="53.380001px" y="0" x="188.7340238" fill="#214083"></tspan><tspan font-family="g_d0_f1" font-size="53.380001px" y="0" x="" fill="#214083"></tspan><tspan font-family="g_d0_f1" font-size="53.380001px" y="0" x="234.6899102" fill="#214083"></tspan><tspan font-family="g_d0_f1" font-size="53.380001px" y="0" x="256.4135432" fill="#214083"></tspan><tspan font-family="g_d0_f1" font-size="53.380001px" y="0" x="282.0869132" fill="#214083"></tspan><tspan font-family="g_d0_f1" font-size="53.380001px" y="0" x="320.6236562" fill="#214083"></tspan><tspan font-family="g_d0_f1" font-size="53.380001px" y="0" x="346.2970572" fill="#214083"></tspan><tspan font-family="g_d0_f1" font-size="53.380001px" y="0" x="373.9986562" fill="#214083"></tspan><tspan font-family="g_d0_f1" font-size="53.380001px" y="0" x="401.7003162" fill="#214083"></tspan><tspan font-family="g_d0_f1" font-size="53.380001px" y="0" x="427.3736562" fill="#214083"></tspan><tspan font-family="g_d0_f1" font-size="53.380001px" y="0" x="453.0470572" fill="#214083"></tspan></text></g></g><g clip-path="url(#clippath3)"><g transform="matrix(0.7463491369 0 0 -0.7463491369 1.8136284684 126.2426858999)"><text transform="matrix(1 0 0 -1 39.40625 12) scale(1, -1)" xml:space="preserve"><tspan font-family="g_d0_f2" font-size="12px" y="0" x="0" fill="#214083"></tspan><tspan font-family="g_d0_f2" font-size="12px" y="0" x="13.7160492" fill="#214083"></tspan><tspan font-family="g_d0_f2" font-size="12px" y="0" x="28.7761078" fill="#214083"></tspan><tspan font-family="g_d0_f2" font-size="12px" y="0" x="42.7081604" fill="#214083"></tspan><tspan font-family="g_d0_f2" font-size="12px" y="0" x="56.5682068" fill="#214083"></tspan><tspan font-family="g_d0_f2" font-size="12px" y="0" x="69.4682465" fill="#214083"></tspan><tspan font-family="g_d0_f2" font-size="12px" y="0" x="83.0042878" fill="#214083"></tspan><tspan font-family="g_d0_f2" font-size="12px" y="0" x="95.6403352" fill="#214083"></tspan><tspan font-family="g_d0_f2" font-size="12px" y="0" x="109.5723878" fill="#214083"></tspan><tspan font-family="g_d0_f2" font-size="12px" y="0" x="123.1084291" fill="#214083"></tspan><tspan font-family="g_d0_f2" font-size="12px" y="0" x="" fill="#214083"></tspan><tspan font-family="g_d0_f2" font-size="12px" y="0" x="144.4684755" fill="#214083"></tspan><tspan font-family="g_d0_f2" font-size="12px" y="0" x="" fill="#214083"></tspan><tspan font-family="g_d0_f2" font-size="12px" y="0" x="162.6845094" fill="#214083"></tspan><tspan font-family="g_d0_f2" font-size="12px" y="0" x="176.4005586" fill="#214083"></tspan><tspan font-family="g_d0_f2" font-size="12px" y="0" x="190.3806154" fill="#214083"></tspan><tspan font-family="g_d0_f2" font-size="12px" y="0" x="204.7206728" fill="#214083"></tspan><tspan font-family="g_d0_f2" font-size="12px" y="0" x="218.2567141" fill="#214083"></tspan><tspan font-family="g_d0_f2" font-size="12px" y="0" x="231.1327517" fill="#214083"></tspan><tspan font-family="g_d0_f2" font-size="12px" y="0" x="244.0327914" fill="#214083"></tspan><tspan font-family="g_d0_f2" font-size="12px" y="0" x="258.372864" fill="#214083"></tspan><tspan font-family="g_d0_f2" font-size="12px" y="0" x="271.0089114" fill="#214083"></tspan><tspan font-family="g_d0_f2" font-size="12px" y="0" x="" fill="#214083"></tspan><tspan font-family="g_d0_f2" font-size="12px" y="0" x="292.3689578" fill="#214083"></tspan><tspan font-family="g_d0_f2" font-size="12px" y="0" x="" fill="#214083"></tspan><tspan font-family="g_d0_f2" font-size="12px" y="0" x="310.5849613" fill="#214083"></tspan><tspan font-family="g_d0_f2" font-size="12px" y="0" x="323.9410404" fill="#214083"></tspan><tspan font-family="g_d0_f2" font-size="12px" y="0" x="332.8330387" fill="#214083"></tspan><tspan font-family="g_d0_f2" font-size="12px" y="0" x="347.1730961" fill="#214083"></tspan><tspan font-family="g_d0_f2" font-size="12px" y="0" x="361.4411625" fill="#214083"></tspan><tspan font-family="g_d0_f2" font-size="12px" y="0" x="375.3731999" fill="#214083"></tspan><tspan font-family="g_d0_f2" font-size="12px" y="0" x="388.2732548" fill="#214083"></tspan><tspan font-family="g_d0_f2" font-size="12px" y="0" x="401.8092655" fill="#214083"></tspan><tspan font-family="g_d0_f2" font-size="12px" y="0" x="410.7012943" fill="#214083"></tspan></text></g></g><g transform=""><path d="M 0 172.83934 L 375 172.83934 L 375 270.80809 L 0 270.80809 Z" fill="#000000" fill-opacity="0"></path></g></g></svg>